<?xml version="1.0" encoding="UTF-8" standalone="no"?>
<!-- Created with Inkscape (http://www.inkscape.org/) -->

<svg
   width="1305"
   height="450"
   viewBox="0 0 345.28096 119.0624"
   version="1.1"
   id="svg1"
   inkscape:version="1.3.2 (091e20ef0f, 2023-11-25)"
   sodipodi:docname="logo.svg"
   xml:space="preserve"
   xmlns:inkscape="http://www.inkscape.org/namespaces/inkscape"
   xmlns:sodipodi="http://sodipodi.sourceforge.net/DTD/sodipodi-0.dtd"
   xmlns:xlink="http://www.w3.org/1999/xlink"
   xmlns="http://www.w3.org/2000/svg"
   xmlns:svg="http://www.w3.org/2000/svg"><sodipodi:namedview
     id="namedview1"
     pagecolor="#ffffff"
     bordercolor="#cccccc"
     borderopacity="1"
     inkscape:showpageshadow="0"
     inkscape:pageopacity="1"
     inkscape:pagecheckerboard="0"
     inkscape:deskcolor="#d1d1d1"
     inkscape:document-units="mm"
     inkscape:zoom="0.37194212"
     inkscape:cx="743.39525"
     inkscape:cy="528.30801"
     inkscape:window-width="1444"
     inkscape:window-height="1243"
     inkscape:window-x="504"
     inkscape:window-y="121"
     inkscape:window-maximized="0"
     inkscape:current-layer="layer1" /><defs
     id="defs1"><filter
       id="filter3758"
       inkscape:collect="always"
       x="-0.048603138"
       y="-0.048044482"
       width="1.0972063"
       height="1.096089"><feGaussianBlur
         id="feGaussianBlur3760"
         stdDeviation="3.35859"
         inkscape:collect="always" /></filter><filter
       id="filter3762"
       inkscape:collect="always"
       x="-0.057571865"
       y="-0.045601477"
       width="1.1151437"
       height="1.091203"><feGaussianBlur
         id="feGaussianBlur3764"
         stdDeviation="3.486036"
         inkscape:collect="always" /></filter><radialGradient
       id="radialGradient3309"
       xlink:href="#linearGradient3303"
       gradientUnits="userSpaceOnUse"
       cy="269.01999"
       cx="430.04001"
       gradientTransform="matrix(0.22747894,0,0,0.2879914,-53.901438,-3.4417654)"
       r="77.137001"
       inkscape:collect="always" /><linearGradient
       id="linearGradient3303"><stop
         id="stop3305"
         style="stop-color:rgb(210, 210, 210)"
         offset="0" /><stop
         id="stop3311"
         style="stop-color:rgb(210, 210, 210)"
         offset=".88" /><stop
         id="stop3307"
         style="stop-color:rgb(128, 128, 128)"
         offset="1" /></linearGradient><radialGradient
       id="radialGradient3319"
       xlink:href="#linearGradient3303"
       gradientUnits="userSpaceOnUse"
       cy="306.62"
       cx="615.16998"
       gradientTransform="matrix(0.24613604,0,0,0.21121774,-70.586698,11.215885)"
       r="77.137001"
       inkscape:collect="always" /><linearGradient
       id="linearGradient2953"
       y2="237.22"
       xlink:href="#linearGradient3396"
       gradientUnits="userSpaceOnUse"
       x2="1487.2"
       gradientTransform="matrix(0.18619869,0,0,0.18619869,-220.7094,27.352684)"
       y1="177.42999"
       x1="1449.7"
       inkscape:collect="always" /><linearGradient
       id="linearGradient3396"><stop
         id="stop3398"
         style="stop-color:rgb(255, 255, 255)"
         offset="0" /><stop
         id="stop3400"
         style="stop-color:rgb(255, 255, 255);stop-opacity:0"
         offset="1" /></linearGradient><linearGradient
       id="linearGradient2949"
       y2="249.2"
       xlink:href="#linearGradient3396"
       gradientUnits="userSpaceOnUse"
       x2="1664.2"
       gradientTransform="matrix(0.18619869,0,0,0.18619869,-219.62944,26.634515)"
       y1="197.06"
       x1="1632.9"
       inkscape:collect="always" /><radialGradient
       id="radialGradient2946"
       xlink:href="#linearGradient3396"
       gradientUnits="userSpaceOnUse"
       cy="319.54001"
       cx="1619.9"
       gradientTransform="matrix(-0.18619869,-1.7082613e-7,6.1667145e-8,-0.06721773,383.09571,107.44884)"
       r="89.638"
       inkscape:collect="always" /><radialGradient
       id="radialGradient2943"
       xlink:href="#linearGradient3396"
       gradientUnits="userSpaceOnUse"
       cy="319.54001"
       cx="1619.9"
       gradientTransform="matrix(-0.13997673,-0.17330443,0.06692539,-0.04616052,242.64604,379.81656)"
       r="89.638"
       inkscape:collect="always" /><linearGradient
       inkscape:collect="always"
       xlink:href="#linearGradient3396"
       id="linearGradient18804"
       gradientUnits="userSpaceOnUse"
       gradientTransform="translate(-1228.0642,-259.91682)"
       x1="1557.3416"
       y1="294.25241"
       x2="1532.6"
       y2="393.51001" /><filter
       id="filter3799-4"
       inkscape:collect="always"
       x="-0.030705521"
       y="-0.066063618"
       width="1.061411"
       height="1.1321272"><feGaussianBlur
         id="feGaussianBlur3801-8"
         stdDeviation="2.2333129"
         inkscape:collect="always" /></filter><linearGradient
       inkscape:collect="always"
       xlink:href="#linearGradient3396"
       id="linearGradient18804-4"
       gradientUnits="userSpaceOnUse"
       gradientTransform="translate(-1228.0642,-259.91682)"
       x1="1556.9656"
       y1="283.08633"
       x2="1532.6"
       y2="393.51001" /><filter
       id="filter3799-4-3"
       inkscape:collect="always"
       x="-0.026182867"
       y="-0.080350132"
       width="1.0523657"
       height="1.1607003"><feGaussianBlur
         id="feGaussianBlur3801-8-7"
         stdDeviation="2.2333129"
         inkscape:collect="always" /></filter><linearGradient
       id="linearGradient2922"
       y2="262.63"
       xlink:href="#linearGradient3396"
       gradientUnits="userSpaceOnUse"
       x2="1506.4"
       gradientTransform="matrix(0.18619869,0,0,0.18619869,-221.93831,26.650155)"
       y1="234.5"
       x1="1498.6"
       inkscape:collect="always" /><radialGradient
       id="radialGradient2940-7-5"
       xlink:href="#linearGradient3420"
       gradientUnits="userSpaceOnUse"
       cy="418.72"
       cx="510.07001"
       gradientTransform="matrix(0.18237641,0.03753397,-0.00784958,0.03814095,-23.98722,9.4775686)"
       r="90.912003"
       inkscape:collect="always"
       fx="510.07001"
       fy="418.72" /><linearGradient
       id="linearGradient3420"><stop
         id="stop3422"
         style="stop-color:rgb(223, 190, 0)"
         offset="0" /><stop
         id="stop3436"
         style="stop-color:rgb(222, 175, 0)"
         offset="0.8" /><stop
         id="stop3424"
         style="stop-color:rgb(222, 161, 1)"
         offset="1" /></linearGradient><radialGradient
       id="radialGradient2940-7-5-9"
       xlink:href="#linearGradient3420"
       gradientUnits="userSpaceOnUse"
       cy="236.28363"
       cx="576.10675"
       gradientTransform="matrix(0.13290976,-0.17442376,0.17341429,0.08894716,-41.407748,121.63005)"
       r="90.912003"
       inkscape:collect="always"
       fx="576.10675"
       fy="236.28363" /><radialGradient
       inkscape:collect="always"
       xlink:href="#linearGradient38712"
       id="radialGradient38250"
       cx="487.08627"
       cy="80.985451"
       fx="487.08627"
       fy="80.985451"
       r="309.76178"
       gradientTransform="matrix(0.32572895,-0.04092756,0.00331068,0.02634859,-98.746411,59.948455)"
       gradientUnits="userSpaceOnUse" /><linearGradient
       id="linearGradient38712"
       inkscape:collect="always"><stop
         id="stop38708"
         style="stop-color:rgb(60, 60, 60)"
         offset="0" /><stop
         id="stop38710"
         style="stop-color:#3c3c3c;stop-opacity:0.8561843"
         offset="1" /></linearGradient><radialGradient
       id="radialGradient2940-7"
       xlink:href="#linearGradient3420"
       gradientUnits="userSpaceOnUse"
       cy="418.72"
       cx="510.07001"
       gradientTransform="matrix(0.18237641,0.03753397,-0.00784958,0.03814095,-25.13297,11.793567)"
       r="90.912003"
       inkscape:collect="always"
       fx="510.07001"
       fy="418.72" /><linearGradient
       inkscape:collect="always"
       xlink:href="#linearGradient3396"
       id="linearGradient18493"
       gradientUnits="userSpaceOnUse"
       gradientTransform="translate(-795.47702,-295.63749)"
       x1="1563.5"
       y1="341.23001"
       x2="1532.6"
       y2="393.51001" /><filter
       id="filter3799-3"
       inkscape:collect="always"
       x="-0.036426545"
       y="-0.066062929"
       width="1.0728531"
       height="1.1321259"><feGaussianBlur
         id="feGaussianBlur3801-6"
         stdDeviation="2.2333129"
         inkscape:collect="always" /></filter><linearGradient
       inkscape:collect="always"
       xlink:href="#linearGradient3396"
       id="linearGradient23497"
       gradientUnits="userSpaceOnUse"
       gradientTransform="matrix(-0.03595492,0.08142883,-0.05732004,-0.05107756,91.210677,-57.332011)"
       x1="1498.6"
       y1="234.5"
       x2="1494.3365"
       y2="241.96991" /><linearGradient
       id="linearGradient2919"
       y2="303.34"
       xlink:href="#linearGradient3820"
       gradientUnits="userSpaceOnUse"
       x2="1484.5"
       gradientTransform="matrix(0.18619869,0,0,0.18619869,-221.13765,25.794759)"
       y1="270"
       x1="1466.7"
       inkscape:collect="always" /><linearGradient
       id="linearGradient3820"
       inkscape:collect="always"><stop
         id="stop3822"
         style="stop-color:rgb(60, 60, 60)"
         offset="0" /><stop
         id="stop3824"
         style="stop-color:rgb(60, 60, 60);stop-opacity:0"
         offset="1" /></linearGradient><linearGradient
       id="linearGradient2916"
       y2="262.63"
       xlink:href="#linearGradient3396"
       gradientUnits="userSpaceOnUse"
       x2="1508.4"
       gradientTransform="matrix(0.18619869,0,0,0.18619869,-211.28774,26.883462)"
       y1="231.99001"
       x1="1498.2"
       inkscape:collect="always" /><linearGradient
       id="linearGradient2913"
       y2="303.34"
       xlink:href="#linearGradient3820"
       gradientUnits="userSpaceOnUse"
       x2="1484.5"
       gradientTransform="matrix(0.18619869,0,0,0.18619869,-210.08676,26.183542)"
       y1="270"
       x1="1466.7"
       inkscape:collect="always" /><linearGradient
       id="linearGradient27610"
       inkscape:swatch="gradient"><stop
         style="stop-color:#ffffff;stop-opacity:1;"
         offset="0"
         id="stop27606" /><stop
         style="stop-color:#0000a3;stop-opacity:0;"
         offset="1"
         id="stop27608" /></linearGradient><linearGradient
       id="linearGradient39586"
       inkscape:swatch="solid"><stop
         style="stop-color:#000000;stop-opacity:1;"
         offset="0"
         id="stop39584" /></linearGradient></defs><g
     inkscape:label="Layer 1"
     inkscape:groupmode="layer"
     id="layer1"><g
       id="g18"
       transform="translate(1.1094103,-1.4544516)"><rect
         id="rect3326"
         style="fill:none;stroke-width:0.0811741"
         height="69.660645"
         width="76.842339"
         y="24.839186"
         x="24.531036" /><path
         id="path3227"
         sodipodi:rx="82.922791"
         sodipodi:ry="83.887009"
         style="opacity:0.85;fill:#000000;fill-rule:evenodd;stroke-width:0.435955;filter:url(#filter3758)"
         sodipodi:type="arc"
         d="m 700.02258,299.87195 a 82.922791,83.887009 0 0 1 -82.92243,83.88701 82.922791,83.887009 0 0 1 -82.92315,-83.88628 82.922791,83.887009 0 0 1 82.92171,-83.88774 82.922791,83.887009 0 0 1 82.92387,83.88555"
         sodipodi:open="true"
         transform="matrix(0.26153467,0,0,0.20500475,-80.02325,13.245526)"
         sodipodi:cy="299.87195"
         sodipodi:cx="617.09979"
         sodipodi:end="6.2831679"
         sodipodi:start="0"
         sodipodi:arc-type="arc" /><path
         id="path3213"
         sodipodi:rx="77.137474"
         sodipodi:ry="97.386063"
         style="opacity:0.85;fill:#000000;fill-rule:evenodd;stroke:#000000;stroke-width:1.03082;filter:url(#filter3762)"
         sodipodi:type="arc"
         d="m 507.17892,269.01694 a 77.137474,97.386063 0 0 1 -77.13714,97.38606 77.137474,97.386063 0 0 1 -77.13781,-97.38522 77.137474,97.386063 0 0 1 77.13647,-97.38691 77.137474,97.386063 0 0 1 77.13848,97.38437"
         sodipodi:open="true"
         transform="matrix(0.23898601,0,0,0.23353039,-58.671844,10.667234)"
         sodipodi:cy="269.01694"
         sodipodi:cx="430.04144"
         sodipodi:end="6.2831679"
         sodipodi:start="0"
         sodipodi:arc-type="arc" /><path
         id="path3215"
         sodipodi:rx="17.54715"
         sodipodi:ry="22.21493"
         style="fill:url(#radialGradient3309);fill-rule:evenodd;stroke-width:0.264583"
         sodipodi:type="arc"
         d="M 61.471085,74.032814 A 17.54715,22.21493 0 0 1 43.924011,96.247744 17.54715,22.21493 0 0 1 26.376785,74.033007 17.54715,22.21493 0 0 1 43.923706,51.817884 17.54715,22.21493 0 0 1 61.471085,74.032427"
         sodipodi:open="true"
         sodipodi:cy="74.032814"
         sodipodi:cx="43.923935"
         sodipodi:end="6.2831679"
         sodipodi:start="0"
         sodipodi:arc-type="arc" /><path
         id="path3229"
         sodipodi:rx="18.986313"
         sodipodi:ry="16.292803"
         style="fill:url(#radialGradient3319);fill-rule:evenodd;stroke-width:0.264583"
         sodipodi:type="arc"
         d="M 99.815453,75.979774 A 18.986313,16.292803 0 0 1 80.829222,92.272577 18.986313,16.292803 0 0 1 61.842827,75.979916 18.986313,16.292803 0 0 1 80.828892,59.686972 18.986313,16.292803 0 0 1 99.815453,75.979491"
         sodipodi:open="true"
         sodipodi:cy="75.979774"
         sodipodi:cx="80.82914"
         sodipodi:end="6.2831679"
         sodipodi:start="0"
         sodipodi:arc-type="arc" /><path
         id="path3231"
         sodipodi:rx="5.0270143"
         sodipodi:ry="7.3609843"
         style="fill:#000000;fill-rule:evenodd;stroke-width:0.264583"
         sodipodi:type="arc"
         d="m 71.946036,76.159882 a 5.0270143,7.3609843 0 0 1 -5.026993,7.360984 5.0270143,7.3609843 0 0 1 -5.027036,-7.36092 5.0270143,7.3609843 0 0 1 5.026949,-7.361049 5.0270143,7.3609843 0 0 1 5.02708,7.360856"
         sodipodi:open="true"
         sodipodi:cy="76.159882"
         sodipodi:cx="66.919022"
         sodipodi:end="6.2831679"
         sodipodi:start="0"
         sodipodi:arc-type="arc" /><path
         id="path3328"
         sodipodi:nodetypes="cccc"
         style="opacity:0.8;fill:url(#linearGradient2953);fill-rule:evenodd;stroke-width:0.0811741"
         d="m 32.790808,59.310894 c 13.268707,-17.893881 29.505045,2.099951 27.581612,15.669179 -4.368034,3.211553 -8.909048,1.20731 -8.909048,1.20731 C 50.434231,64.404361 42.838276,61.10082 32.791366,59.310894 Z" /><path
         id="path3217"
         sodipodi:rx="5.0270143"
         sodipodi:ry="7.3609843"
         style="fill:#000000;fill-rule:evenodd;stroke:#000000;stroke-width:0.608544"
         sodipodi:type="arc"
         d="m 61.143664,76.006996 a 5.0270143,7.3609843 0 0 1 -5.026992,7.360984 5.0270143,7.3609843 0 0 1 -5.027037,-7.36092 5.0270143,7.3609843 0 0 1 5.026949,-7.361048 5.0270143,7.3609843 0 0 1 5.02708,7.360856"
         sodipodi:open="true"
         sodipodi:cy="76.006996"
         sodipodi:cx="56.11665"
         sodipodi:end="6.2831679"
         sodipodi:start="0"
         sodipodi:arc-type="arc" /><path
         id="path3374"
         sodipodi:nodetypes="cccc"
         style="opacity:0.8;fill:url(#linearGradient2949);fill-rule:evenodd;stroke-width:0.0811741"
         d="m 78.033364,61.105851 c 6.891776,-2.158415 24.010326,6.240263 20.107597,15.080974 l -7.899662,0.359069 c 0,0 -5.026994,-11.490324 -12.208493,-15.440158 z" /><path
         id="path3384"
         sodipodi:nodetypes="ccc"
         style="opacity:0.8;fill:url(#radialGradient2946);fill-rule:evenodd;stroke-width:0.0811741"
         d="m 64.887738,83.63589 c 11.920443,6.616386 23.06071,6.391455 33.1955,-2.908421 -6.794015,14.188708 -19.997735,15.545723 -33.1955,2.908421 z" /><path
         id="path3402"
         sodipodi:nodetypes="ccc"
         style="opacity:0.8;fill:url(#radialGradient2943);fill-rule:evenodd;stroke-width:0.0811741"
         d="M 28.727956,67.740111 C 28.624794,83.5184 38.980424,91.81746 53.37321,93.204638 35.727906,98.76118 26.651837,83.649667 28.727956,67.740111 Z" /><path
         id="path3406-2"
         sodipodi:nodetypes="csccscc"
         style="fill:url(#linearGradient18804);fill-rule:evenodd;stroke-width:0.435955;filter:url(#filter3799-4)"
         d="m 260.87671,73.60236 c 0,0 9.93389,33.20513 44.1131,26.76782 36.72872,-6.917483 75.48611,4.99818 75.48611,4.99818 60.02146,1.92451 11.56655,-14.207874 -28.43796,-33.168974 5.03972,-3.740211 -27.5969,-12.667943 -43.7376,-20.575819 -37.44448,-18.34532 -54.35278,-45.9790279 -74.18575,-8.878556 z"
         transform="matrix(0.17419118,0,0,0.05419128,-30.441051,29.924286)" /><path
         id="path3406-2-9"
         sodipodi:nodetypes="csccsccc"
         style="fill:url(#linearGradient18804-4);fill-rule:evenodd;stroke-width:0.435955;filter:url(#filter3799-4-3)"
         d="m 194.30681,79.087893 c 0,0 49.61622,-19.576227 69.93893,-19.935664 36.84413,-0.651642 116.23018,46.216131 116.23018,46.216131 39.21606,14.42497 10.01054,-5.612561 -29.99397,-24.573661 0,0 -34.46552,-20.695507 -44.69922,-23.932382 C 275.27658,47.213344 264.50014,40.23348 241.2949,45.25937 l -17.29671,9.770499 z"
         transform="matrix(0.0777246,0,0,0.03148708,4.1360119,29.079122)" /><path
         id="path3828"
         sodipodi:nodetypes="cccc"
         style="fill:url(#linearGradient2922);fill-rule:evenodd;stroke-width:0.0811741"
         d="m 55.106725,68.929917 c 0,0 1.241533,3.586748 1.333497,6.6216 2.712914,-0.919655 4.138448,-1.839311 4.138448,-1.839311 0,0 -0.689753,-4.782137 -5.472006,-4.782137 z" /><path
         id="path3202-9-9"
         sodipodi:nodetypes="cccscccsscscc"
         style="fill:url(#radialGradient2940-7-5);fill-rule:evenodd;stroke-width:0.0479558"
         d="m 66.324207,49.340122 1.770172,-0.01164 6.154096,-3.314131 c 3.029172,-1.201425 23.121049,-13.883646 33.892665,-8.202776 7.63827,4.028369 8.02685,7.794142 8.02685,7.794142 0,0 -15.65941,-15.642833 -21.243037,-14.204301 -5.724492,-0.992019 -9.174469,10.515193 -27.698842,13.155805 -2.745634,0.0038 -20.93973,-6.450963 -35.443062,-8.980466 -7.853038,-1.369636 -20.371923,14.561571 -21.431313,12.930195 -3.2093395,-4.942128 19.222879,-9.838354 19.222879,-9.838354 0,0 19.710345,5.396627 26.404933,7.839341 6.694587,2.442715 10.34464,2.832114 10.34464,2.832114 z" /><path
         id="path3202-9-9-0"
         sodipodi:nodetypes="cccsccsccsscscc"
         style="fill:url(#radialGradient2940-7-5-9);fill-rule:evenodd;stroke-width:0.055252"
         d="m 65.178439,51.65605 v 0 l 5.513215,-2.335634 c 3.313912,-1.457783 25.294407,-16.846114 37.078546,-9.953069 8.35626,4.887934 11.41574,18.206151 11.41574,18.206151 v 0 l -3.54389,-4.779644 C 111.60214,47.345226 97.801006,30.306592 93.311702,31.589399 87.049112,30.385704 83.27484,44.348306 63.009194,47.552367 60.005474,47.55694 40.101151,39.724909 24.23452,36.655665 15.643303,34.993771 10.793457,61.022142 9.6344834,59.042666 6.1234707,53.045995 19.885302,39.183978 19.885302,39.183978 c 0,0 23.750515,7.124114 31.431929,8.973413 7.910328,1.904409 8.686644,2.448523 8.686644,2.448523 z" /><path
         id="path3202-9-9-5"
         sodipodi:nodetypes="cccscccsscscc"
         style="fill:url(#radialGradient38250);fill-opacity:1;fill-rule:evenodd;stroke-width:0.0497132"
         d="m 64.293671,49.880001 1.902271,-0.01164 6.613346,-3.314132 c 3.255224,-1.201425 24.846459,-13.883646 36.421902,-8.202775 8.20828,4.028368 8.62586,7.794141 8.62586,7.794141 0,0 -15.7022,-13.542486 -21.702511,-12.103954 C 90.002856,33.049625 82.915951,44.911755 63.009194,47.552367 60.058668,47.556135 43.614696,40.053197 28.029052,37.523694 19.58998,36.154058 2.502569,52.918345 2.502569,52.918345 3.9178187,43.404753 24.801638,39.208478 24.801638,39.208478 c 0,0 21.181232,5.396626 28.375404,7.839341 7.194171,2.442714 11.116609,2.832113 11.116609,2.832113 z" /><path
         id="path3202-9"
         sodipodi:nodetypes="cccscccscscc"
         style="fill:url(#radialGradient2940-7);fill-rule:evenodd;stroke-width:0.0479558"
         d="m 65.178458,51.656119 1.770172,-0.01164 6.154096,-3.314131 c 3.029171,-1.201424 21.752315,-9.15771 33.892664,-8.202775 17.19165,1.35226 14.39257,-2.633143 14.39257,-2.633143 0,0 -13.04462,-4.724859 -18.62825,-3.286327 -5.724491,-0.99202 -18.154975,10.024504 -36.679349,12.665115 -4.232296,0.0058 -47.081837,-9.302981 -52.559244,-8.48872 -5.4774072,0.814217 7.685114,5.920321 7.685114,5.920321 0,0 26.93298,2.076401 33.627567,4.519115 6.694588,2.442715 10.344641,2.832114 10.344641,2.832114 z" /><path
         id="path3406-4"
         sodipodi:nodetypes="cscsccc"
         style="fill:url(#linearGradient18493);fill-rule:evenodd;stroke-width:0.435955;filter:url(#filter3799-3)"
         d="m 660.48298,42.939507 c 0,0 46.522,3.1015 77.094,21.71 30.572,18.609 41.648,44.307003 41.648,44.307003 6.53188,-7.40421 18.40472,-9.522862 22.64745,-15.489347 11.75874,-16.536137 5.83216,-33.727728 -20.87515,-53.186656 -37.355,-18.836 -83.277,-14.983 -120.51,2.6584 z"
         transform="matrix(0.16139608,0,0,0.06781276,-9.8377268,32.800096)" /><path
         id="path3828-0"
         sodipodi:nodetypes="csccc"
         style="fill:url(#linearGradient23497);fill-rule:evenodd;stroke-width:0.0351586"
         d="m 24.737033,52.34737 c 0,0 1.054039,-0.624514 0.626309,-0.818038 -0.462802,-0.209391 -2.466713,-0.122967 -2.961469,-0.534717 -0.240755,1.438695 -0.232916,2.31439 -0.232916,2.31439 0,0 1.313326,-0.144397 2.568076,-0.961635 z" /><path
         id="path3830"
         sodipodi:nodetypes="ccc"
         style="fill:url(#linearGradient2919);fill-rule:evenodd;stroke-width:0.0811741"
         d="m 52.28395,71.477115 c -0.528621,4.657577 1.697167,9.277907 6.345651,10.62208 -6.697565,2.652399 -8.805522,-5.97456 -6.345651,-10.62208 z" /><path
         id="path3836"
         sodipodi:nodetypes="cccc"
         style="fill:url(#linearGradient2916);fill-rule:evenodd;stroke-width:0.0811741"
         d="m 65.761013,69.164529 c 0,0 1.241533,3.586747 1.333498,6.621599 2.712913,-0.919655 4.138454,-1.83931 4.138454,-1.83931 0,0 -0.68976,-4.782138 -5.472013,-4.782138 z" /><path
         id="path3838"
         sodipodi:nodetypes="cscc"
         style="fill:url(#linearGradient2913);fill-rule:evenodd;stroke-width:0.0811741"
         d="m 63.327391,71.866275 c 0,0 -0.459833,4.000474 1.241539,6.713576 1.701373,2.712913 3.632733,3.586747 5.104077,3.908498 -6.697566,2.652398 -8.805523,-5.97456 -6.345652,-10.622074 z" /><text
         xml:space="preserve"
         style="font-style:normal;font-variant:normal;font-weight:normal;font-stretch:normal;font-size:82.8747px;line-height:1.25;font-family:'Luxi Sans';-inkscape-font-specification:'Luxi Sans';fill:#ffffff;fill-opacity:1;stroke:none;stroke-width:0.903238"
         x="226.91901"
         y="101.6452"
         id="text70021"
         transform="scale(1.0532506,0.94944166)"><tspan
           sodipodi:role="line"
           id="tspan70019"
           x="226.91901"
           y="101.6452"
           style="font-style:normal;font-variant:normal;font-weight:normal;font-stretch:normal;font-family:'Sedgwick Ave Display';-inkscape-font-specification:'Sedgwick Ave Display';fill:#ffffff;fill-opacity:1;stroke-width:0.903238">OS</tspan></text><text
         xml:space="preserve"
         style="font-style:normal;font-variant:normal;font-weight:normal;font-stretch:normal;font-size:41.6571px;line-height:1.25;font-family:'Sedgwick Ave Display';-inkscape-font-specification:'Sedgwick Ave Display';fill:#dea101;fill-opacity:1;stroke:none;stroke-width:0.454017"
         x="115.90398"
         y="86.988487"
         id="text53457"
         transform="scale(1.0962983,0.91216049)"><tspan
           sodipodi:role="line"
           id="tspan53455"
           x="115.90398"
           y="86.988487"
           style="font-style:normal;font-variant:normal;font-weight:normal;font-stretch:normal;font-family:'Sedgwick Ave Display';-inkscape-font-specification:'Sedgwick Ave Display';fill:#dea101;fill-opacity:1;stroke-width:0.454017">Macaroni</tspan></text></g></g></svg>
